<svg xmlns="http://www.w3.org/2000/svg" xmlns:xlink="http://www.w3.org/1999/xlink" width="48" height="48" viewBox="0 0 48 48">
    <defs>
        <linearGradient id="b" x1="0%" y1="0%" y2="100%">
            <stop offset="0%" stop-color="#F85CAA"/>
            <stop offset="100%" stop-color="#F03479"/>
        </linearGradient>
        <circle id="a" cx="24" cy="24" r="24"/>
        <linearGradient id="d" x1="50%" x2="54.595%" y1="23.068%" y2="68.963%">
            <stop offset="0%" stop-color="#FFF" stop-opacity=".7"/>
            <stop offset="100%" stop-color="#FFF"/>
        </linearGradient>
    </defs>
    <g fill="none" fill-rule="evenodd">
        <mask id="c" fill="#fff">
            <use xlink:href="#a"/>
        </mask>
        <use fill="url(#b)" xlink:href="#a"/>
        <g mask="url(#c)" opacity=".987">
            <g fill="url(#d)" transform="translate(11 9)">
                <path d="M33.905 33.644a6.995 6.995 0 0 0-2.374-5.285 7.16 7.16 0 0 0-4.69-1.783h-.055c-3.932-.014-7.13 3.115-7.144 6.99-.015 3.873 3.162 7.025 7.093 7.038a7.16 7.16 0 0 0 5.052-2.012 6.947 6.947 0 0 0 2.118-4.948zm-13.348.823h1.78v-1.754h-1.78v1.754zm9.788.876c0 1.453-1.195 2.63-2.669 2.63v.878h-1.78v-.877c-1.474 0-2.67-1.178-2.67-2.63h1.78c0 .484.399.876.89.876v-1.753c-1.474 0-2.67-1.178-2.67-2.63 0-1.453 1.196-2.631 2.67-2.631v-.877h1.78v.877c1.474 0 2.67 1.178 2.67 2.63h-1.78a.883.883 0 0 0-.89-.877v1.754c1.474 0 2.67 1.178 2.67 2.63zm.89-.876h1.78v-1.754h-1.78v1.754z"/>
                <path d="M27.676 36.22c.491 0 .89-.392.89-.877a.883.883 0 0 0-.89-.876v1.753zM25.006 31.836c0 .484.399.877.89.877v-1.754a.884.884 0 0 0-.89.877z"/>
                <path d="M20.445 39.741a8.673 8.673 0 0 1-1.867-9.538c1.385-3.26 4.621-5.381 8.208-5.381V1.284l-.937 1.26a.893.893 0 0 1-1.435-.001L22.532 0l-1.886 2.543a.894.894 0 0 1-.72.36.892.892 0 0 1-.719-.36L17.327.009l-1.88 2.534a.927.927 0 0 1-.718.338.926.926 0 0 1-.718-.338L12.13.009l-1.88 2.534a.894.894 0 0 1-1.436 0L6.928.001 5.045 2.543a.893.893 0 0 1-.718.36.894.894 0 0 1-.719-.36L1.728.01.09 2.215v44.372l.918-1.24a.927.927 0 0 1 .718-.338c.28 0 .544.124.719.339l1.88 2.533 1.88-2.537a.894.894 0 0 1 .718-.36c.283 0 .55.134.718.359l1.887 2.543 1.881-2.543a.93.93 0 0 1 1.438 0l1.88 2.538 1.88-2.537a.929.929 0 0 1 .72-.339c.279 0 .543.125.718.339l1.881 2.543 1.888-2.543a.895.895 0 0 1 .717-.356c.284 0 .551.133.718.36l1.882 2.542 1.654-2.224v-3.308h-.07a8.913 8.913 0 0 1-6.271-2.617zM3.65 28.33h2.67v-1.753H3.65v1.753zm0-5.26h2.67v-1.754H3.65v1.754zm0-5.261h2.67v-1.754H3.65v1.754zm0-5.261h2.67v-1.753H3.65v1.753zm5.339-5.26h8.898V5.532H8.99v1.753zm-.89 5.26h15.127v-1.753H8.1v1.753zm0 5.26h15.127v-1.753H8.1v1.754zm0 10.522h8.899v-1.753H8.099v1.753zm0-5.26h15.127v-1.754H8.1v1.754z"/>
            </g>
        </g>
    </g>
</svg>
